<svg width="215" height="16" viewBox="0 0 215 16" fill="none" xmlns="http://www.w3.org/2000/svg">
<g opacity="0.5">
<path d="M128.271 3.42188V12H127.188V4.77539L125.002 5.57227V4.59375L128.102 3.42188H128.271ZM135.021 3.42188V12H133.938V4.77539L131.752 5.57227V4.59375L134.852 3.42188H135.021ZM138.279 11.4258C138.279 11.2422 138.336 11.0879 138.449 10.9629C138.566 10.834 138.734 10.7695 138.953 10.7695C139.172 10.7695 139.338 10.834 139.451 10.9629C139.568 11.0879 139.627 11.2422 139.627 11.4258C139.627 11.6055 139.568 11.7578 139.451 11.8828C139.338 12.0078 139.172 12.0703 138.953 12.0703C138.734 12.0703 138.566 12.0078 138.449 11.8828C138.336 11.7578 138.279 11.6055 138.279 11.4258ZM138.285 6.25195C138.285 6.06836 138.342 5.91406 138.455 5.78906C138.572 5.66016 138.74 5.5957 138.959 5.5957C139.178 5.5957 139.344 5.66016 139.457 5.78906C139.574 5.91406 139.633 6.06836 139.633 6.25195C139.633 6.43164 139.574 6.58398 139.457 6.70898C139.344 6.83398 139.178 6.89648 138.959 6.89648C138.74 6.89648 138.572 6.83398 138.455 6.70898C138.342 6.58398 138.285 6.43164 138.285 6.25195ZM144.678 3.42188V12H143.594V4.77539L141.408 5.57227V4.59375L144.508 3.42188H144.678ZM149.236 7.93945L148.369 7.7168L148.797 3.46875H153.174V4.4707H149.717L149.459 6.79102C149.615 6.70117 149.812 6.61719 150.051 6.53906C150.293 6.46094 150.57 6.42188 150.883 6.42188C151.277 6.42188 151.631 6.49023 151.943 6.62695C152.256 6.75977 152.521 6.95117 152.74 7.20117C152.963 7.45117 153.133 7.75195 153.25 8.10352C153.367 8.45508 153.426 8.84766 153.426 9.28125C153.426 9.69141 153.369 10.0684 153.256 10.4121C153.146 10.7559 152.98 11.0566 152.758 11.3145C152.535 11.5684 152.254 11.7656 151.914 11.9062C151.578 12.0469 151.182 12.1172 150.725 12.1172C150.381 12.1172 150.055 12.0703 149.746 11.9766C149.441 11.8789 149.168 11.7324 148.926 11.5371C148.688 11.3379 148.492 11.0918 148.34 10.7988C148.191 10.502 148.098 10.1543 148.059 9.75586H149.09C149.137 10.0762 149.23 10.3457 149.371 10.5645C149.512 10.7832 149.695 10.9492 149.922 11.0625C150.152 11.1719 150.42 11.2266 150.725 11.2266C150.982 11.2266 151.211 11.1816 151.41 11.0918C151.609 11.002 151.777 10.873 151.914 10.7051C152.051 10.5371 152.154 10.334 152.225 10.0957C152.299 9.85742 152.336 9.58984 152.336 9.29297C152.336 9.02344 152.299 8.77344 152.225 8.54297C152.15 8.3125 152.039 8.11133 151.891 7.93945C151.746 7.76758 151.568 7.63477 151.357 7.54102C151.146 7.44336 150.904 7.39453 150.631 7.39453C150.268 7.39453 149.992 7.44336 149.805 7.54102C149.621 7.63867 149.432 7.77148 149.236 7.93945Z" fill="#333333"/>
<g clip-path="url(#clip0_1_451)">
<path d="M112.001 14.6654C115.683 14.6654 118.667 11.6806 118.667 7.9987C118.667 4.3168 115.683 1.33203 112.001 1.33203C108.319 1.33203 105.334 4.3168 105.334 7.9987C105.334 11.6806 108.319 14.6654 112.001 14.6654Z" stroke="#333333" stroke-width="1.5" stroke-linecap="round" stroke-linejoin="round"/>
<path d="M112 4V8L114.667 9.33333" stroke="#333333" stroke-width="1.5" stroke-linecap="round" stroke-linejoin="round"/>
</g>
</g>
<g opacity="0.5">
<path d="M26.0645 7.05469V8.35547C26.0645 9.05469 26.002 9.64453 25.877 10.125C25.752 10.6055 25.5723 10.9922 25.3379 11.2852C25.1035 11.5781 24.8203 11.791 24.4883 11.9238C24.1602 12.0527 23.7891 12.1172 23.375 12.1172C23.0469 12.1172 22.7441 12.0762 22.4668 11.9941C22.1895 11.9121 21.9395 11.7812 21.7168 11.6016C21.498 11.418 21.3105 11.1797 21.1543 10.8867C20.998 10.5938 20.8789 10.2383 20.7969 9.82031C20.7148 9.40234 20.6738 8.91406 20.6738 8.35547V7.05469C20.6738 6.35547 20.7363 5.76953 20.8613 5.29688C20.9902 4.82422 21.1719 4.44531 21.4062 4.16016C21.6406 3.87109 21.9219 3.66406 22.25 3.53906C22.582 3.41406 22.9531 3.35156 23.3633 3.35156C23.6953 3.35156 24 3.39258 24.2773 3.47461C24.5586 3.55273 24.8086 3.67969 25.0273 3.85547C25.2461 4.02734 25.4316 4.25781 25.584 4.54688C25.7402 4.83203 25.8594 5.18164 25.9414 5.5957C26.0234 6.00977 26.0645 6.49609 26.0645 7.05469ZM24.9746 8.53125V6.87305C24.9746 6.49023 24.9512 6.1543 24.9043 5.86523C24.8613 5.57227 24.7969 5.32227 24.7109 5.11523C24.625 4.9082 24.5156 4.74023 24.3828 4.61133C24.2539 4.48242 24.1035 4.38867 23.9316 4.33008C23.7637 4.26758 23.5742 4.23633 23.3633 4.23633C23.1055 4.23633 22.877 4.28516 22.6777 4.38281C22.4785 4.47656 22.3105 4.62695 22.1738 4.83398C22.041 5.04102 21.9395 5.3125 21.8691 5.64844C21.7988 5.98438 21.7637 6.39258 21.7637 6.87305V8.53125C21.7637 8.91406 21.7852 9.25195 21.8281 9.54492C21.875 9.83789 21.9434 10.0918 22.0332 10.3066C22.123 10.5176 22.2324 10.6914 22.3613 10.8281C22.4902 10.9648 22.6387 11.0664 22.8066 11.1328C22.9785 11.1953 23.168 11.2266 23.375 11.2266C23.6406 11.2266 23.873 11.1758 24.0723 11.0742C24.2715 10.9727 24.4375 10.8145 24.5703 10.5996C24.707 10.3809 24.8086 10.1016 24.875 9.76172C24.9414 9.41797 24.9746 9.00781 24.9746 8.53125ZM31.6191 3.45703H31.7129V4.37695H31.6191C31.0449 4.37695 30.5645 4.4707 30.1777 4.6582C29.791 4.8418 29.4844 5.08984 29.2578 5.40234C29.0312 5.71094 28.8672 6.05859 28.7656 6.44531C28.668 6.83203 28.6191 7.22461 28.6191 7.62305V8.87695C28.6191 9.25586 28.6641 9.5918 28.7539 9.88477C28.8438 10.1738 28.9668 10.418 29.123 10.6172C29.2793 10.8164 29.4551 10.9668 29.6504 11.0684C29.8496 11.1699 30.0566 11.2207 30.2715 11.2207C30.5215 11.2207 30.7441 11.1738 30.9395 11.0801C31.1348 10.9824 31.2988 10.8477 31.4316 10.6758C31.5684 10.5 31.6719 10.293 31.7422 10.0547C31.8125 9.81641 31.8477 9.55469 31.8477 9.26953C31.8477 9.01562 31.8164 8.77148 31.7539 8.53711C31.6914 8.29883 31.5957 8.08789 31.4668 7.9043C31.3379 7.7168 31.1758 7.57031 30.9805 7.46484C30.7891 7.35547 30.5605 7.30078 30.2949 7.30078C29.9941 7.30078 29.7129 7.375 29.4512 7.52344C29.1934 7.66797 28.9805 7.85938 28.8125 8.09766C28.6484 8.33203 28.5547 8.58789 28.5312 8.86523L27.957 8.85938C28.0117 8.42188 28.1133 8.04883 28.2617 7.74023C28.4141 7.42773 28.6016 7.17383 28.8242 6.97852C29.0508 6.7793 29.3027 6.63477 29.5801 6.54492C29.8613 6.45117 30.1582 6.4043 30.4707 6.4043C30.8965 6.4043 31.2637 6.48438 31.5723 6.64453C31.8809 6.80469 32.1348 7.01953 32.334 7.28906C32.5332 7.55469 32.6797 7.85547 32.7734 8.19141C32.8711 8.52344 32.9199 8.86523 32.9199 9.2168C32.9199 9.61914 32.8633 9.99609 32.75 10.3477C32.6367 10.6992 32.4668 11.0078 32.2402 11.2734C32.0176 11.5391 31.7422 11.7461 31.4141 11.8945C31.0859 12.043 30.7051 12.1172 30.2715 12.1172C29.8105 12.1172 29.4082 12.0234 29.0645 11.8359C28.7207 11.6445 28.4355 11.3906 28.209 11.0742C27.9824 10.7578 27.8125 10.4062 27.6992 10.0195C27.5859 9.63281 27.5293 9.24023 27.5293 8.8418V8.33203C27.5293 7.73047 27.5898 7.14062 27.7109 6.5625C27.832 5.98438 28.041 5.46094 28.3379 4.99219C28.6387 4.52344 29.0547 4.15039 29.5859 3.87305C30.1172 3.5957 30.7949 3.45703 31.6191 3.45703ZM38.0996 3.46875L34.543 12.7324H33.6113L37.1738 3.46875H38.0996ZM44.5215 7.05469V8.35547C44.5215 9.05469 44.459 9.64453 44.334 10.125C44.209 10.6055 44.0293 10.9922 43.7949 11.2852C43.5605 11.5781 43.2773 11.791 42.9453 11.9238C42.6172 12.0527 42.2461 12.1172 41.832 12.1172C41.5039 12.1172 41.2012 12.0762 40.9238 11.9941C40.6465 11.9121 40.3965 11.7812 40.1738 11.6016C39.9551 11.418 39.7676 11.1797 39.6113 10.8867C39.4551 10.5938 39.3359 10.2383 39.2539 9.82031C39.1719 9.40234 39.1309 8.91406 39.1309 8.35547V7.05469C39.1309 6.35547 39.1934 5.76953 39.3184 5.29688C39.4473 4.82422 39.6289 4.44531 39.8633 4.16016C40.0977 3.87109 40.3789 3.66406 40.707 3.53906C41.0391 3.41406 41.4102 3.35156 41.8203 3.35156C42.1523 3.35156 42.457 3.39258 42.7344 3.47461C43.0156 3.55273 43.2656 3.67969 43.4844 3.85547C43.7031 4.02734 43.8887 4.25781 44.041 4.54688C44.1973 4.83203 44.3164 5.18164 44.3984 5.5957C44.4805 6.00977 44.5215 6.49609 44.5215 7.05469ZM43.4316 8.53125V6.87305C43.4316 6.49023 43.4082 6.1543 43.3613 5.86523C43.3184 5.57227 43.2539 5.32227 43.168 5.11523C43.082 4.9082 42.9727 4.74023 42.8398 4.61133C42.7109 4.48242 42.5605 4.38867 42.3887 4.33008C42.2207 4.26758 42.0312 4.23633 41.8203 4.23633C41.5625 4.23633 41.334 4.28516 41.1348 4.38281C40.9355 4.47656 40.7676 4.62695 40.6309 4.83398C40.498 5.04102 40.3965 5.3125 40.3262 5.64844C40.2559 5.98438 40.2207 6.39258 40.2207 6.87305V8.53125C40.2207 8.91406 40.2422 9.25195 40.2852 9.54492C40.332 9.83789 40.4004 10.0918 40.4902 10.3066C40.5801 10.5176 40.6895 10.6914 40.8184 10.8281C40.9473 10.9648 41.0957 11.0664 41.2637 11.1328C41.4355 11.1953 41.625 11.2266 41.832 11.2266C42.0977 11.2266 42.3301 11.1758 42.5293 11.0742C42.7285 10.9727 42.8945 10.8145 43.0273 10.5996C43.1641 10.3809 43.2656 10.1016 43.332 9.76172C43.3984 9.41797 43.4316 9.00781 43.4316 8.53125ZM51.5059 11.1094V12H45.9219V11.2207L48.7168 8.10938C49.0605 7.72656 49.3262 7.40234 49.5137 7.13672C49.7051 6.86719 49.8379 6.62695 49.9121 6.41602C49.9902 6.20117 50.0293 5.98242 50.0293 5.75977C50.0293 5.47852 49.9707 5.22461 49.8535 4.99805C49.7402 4.76758 49.5723 4.58398 49.3496 4.44727C49.127 4.31055 48.8574 4.24219 48.541 4.24219C48.1621 4.24219 47.8457 4.31641 47.5918 4.46484C47.3418 4.60938 47.1543 4.8125 47.0293 5.07422C46.9043 5.33594 46.8418 5.63672 46.8418 5.97656H45.7578C45.7578 5.49609 45.8633 5.05664 46.0742 4.6582C46.2852 4.25977 46.5977 3.94336 47.0117 3.70898C47.4258 3.4707 47.9355 3.35156 48.541 3.35156C49.0801 3.35156 49.541 3.44727 49.9238 3.63867C50.3066 3.82617 50.5996 4.0918 50.8027 4.43555C51.0098 4.77539 51.1133 5.17383 51.1133 5.63086C51.1133 5.88086 51.0703 6.13477 50.9844 6.39258C50.9023 6.64648 50.7871 6.90039 50.6387 7.1543C50.4941 7.4082 50.3242 7.6582 50.1289 7.9043C49.9375 8.15039 49.7324 8.39258 49.5137 8.63086L47.2285 11.1094H51.5059ZM56.5566 3.46875L53 12.7324H52.0684L55.6309 3.46875H56.5566ZM63.2129 11.1094V12H57.6289V11.2207L60.4238 8.10938C60.7676 7.72656 61.0332 7.40234 61.2207 7.13672C61.4121 6.86719 61.5449 6.62695 61.6191 6.41602C61.6973 6.20117 61.7363 5.98242 61.7363 5.75977C61.7363 5.47852 61.6777 5.22461 61.5605 4.99805C61.4473 4.76758 61.2793 4.58398 61.0566 4.44727C60.834 4.31055 60.5645 4.24219 60.248 4.24219C59.8691 4.24219 59.5527 4.31641 59.2988 4.46484C59.0488 4.60938 58.8613 4.8125 58.7363 5.07422C58.6113 5.33594 58.5488 5.63672 58.5488 5.97656H57.4648C57.4648 5.49609 57.5703 5.05664 57.7812 4.6582C57.9922 4.25977 58.3047 3.94336 58.7188 3.70898C59.1328 3.4707 59.6426 3.35156 60.248 3.35156C60.7871 3.35156 61.248 3.44727 61.6309 3.63867C62.0137 3.82617 62.3066 4.0918 62.5098 4.43555C62.7168 4.77539 62.8203 5.17383 62.8203 5.63086C62.8203 5.88086 62.7773 6.13477 62.6914 6.39258C62.6094 6.64648 62.4941 6.90039 62.3457 7.1543C62.2012 7.4082 62.0312 7.6582 61.8359 7.9043C61.6445 8.15039 61.4395 8.39258 61.2207 8.63086L58.9355 11.1094H63.2129ZM69.7285 7.05469V8.35547C69.7285 9.05469 69.666 9.64453 69.541 10.125C69.416 10.6055 69.2363 10.9922 69.002 11.2852C68.7676 11.5781 68.4844 11.791 68.1523 11.9238C67.8242 12.0527 67.4531 12.1172 67.0391 12.1172C66.7109 12.1172 66.4082 12.0762 66.1309 11.9941C65.8535 11.9121 65.6035 11.7812 65.3809 11.6016C65.1621 11.418 64.9746 11.1797 64.8184 10.8867C64.6621 10.5938 64.543 10.2383 64.4609 9.82031C64.3789 9.40234 64.3379 8.91406 64.3379 8.35547V7.05469C64.3379 6.35547 64.4004 5.76953 64.5254 5.29688C64.6543 4.82422 64.8359 4.44531 65.0703 4.16016C65.3047 3.87109 65.5859 3.66406 65.9141 3.53906C66.2461 3.41406 66.6172 3.35156 67.0273 3.35156C67.3594 3.35156 67.6641 3.39258 67.9414 3.47461C68.2227 3.55273 68.4727 3.67969 68.6914 3.85547C68.9102 4.02734 69.0957 4.25781 69.248 4.54688C69.4043 4.83203 69.5234 5.18164 69.6055 5.5957C69.6875 6.00977 69.7285 6.49609 69.7285 7.05469ZM68.6387 8.53125V6.87305C68.6387 6.49023 68.6152 6.1543 68.5684 5.86523C68.5254 5.57227 68.4609 5.32227 68.375 5.11523C68.2891 4.9082 68.1797 4.74023 68.0469 4.61133C67.918 4.48242 67.7676 4.38867 67.5957 4.33008C67.4277 4.26758 67.2383 4.23633 67.0273 4.23633C66.7695 4.23633 66.541 4.28516 66.3418 4.38281C66.1426 4.47656 65.9746 4.62695 65.8379 4.83398C65.7051 5.04102 65.6035 5.3125 65.5332 5.64844C65.4629 5.98438 65.4277 6.39258 65.4277 6.87305V8.53125C65.4277 8.91406 65.4492 9.25195 65.4922 9.54492C65.5391 9.83789 65.6074 10.0918 65.6973 10.3066C65.7871 10.5176 65.8965 10.6914 66.0254 10.8281C66.1543 10.9648 66.3027 11.0664 66.4707 11.1328C66.6426 11.1953 66.832 11.2266 67.0391 11.2266C67.3047 11.2266 67.5371 11.1758 67.7363 11.0742C67.9355 10.9727 68.1016 10.8145 68.2344 10.5996C68.3711 10.3809 68.4727 10.1016 68.5391 9.76172C68.6055 9.41797 68.6387 9.00781 68.6387 8.53125ZM76.7129 11.1094V12H71.1289V11.2207L73.9238 8.10938C74.2676 7.72656 74.5332 7.40234 74.7207 7.13672C74.9121 6.86719 75.0449 6.62695 75.1191 6.41602C75.1973 6.20117 75.2363 5.98242 75.2363 5.75977C75.2363 5.47852 75.1777 5.22461 75.0605 4.99805C74.9473 4.76758 74.7793 4.58398 74.5566 4.44727C74.334 4.31055 74.0645 4.24219 73.748 4.24219C73.3691 4.24219 73.0527 4.31641 72.7988 4.46484C72.5488 4.60938 72.3613 4.8125 72.2363 5.07422C72.1113 5.33594 72.0488 5.63672 72.0488 5.97656H70.9648C70.9648 5.49609 71.0703 5.05664 71.2812 4.6582C71.4922 4.25977 71.8047 3.94336 72.2188 3.70898C72.6328 3.4707 73.1426 3.35156 73.748 3.35156C74.2871 3.35156 74.748 3.44727 75.1309 3.63867C75.5137 3.82617 75.8066 4.0918 76.0098 4.43555C76.2168 4.77539 76.3203 5.17383 76.3203 5.63086C76.3203 5.88086 76.2773 6.13477 76.1914 6.39258C76.1094 6.64648 75.9941 6.90039 75.8457 7.1543C75.7012 7.4082 75.5312 7.6582 75.3359 7.9043C75.1445 8.15039 74.9395 8.39258 74.7207 8.63086L72.4355 11.1094H76.7129ZM83.4629 11.1094V12H77.8789V11.2207L80.6738 8.10938C81.0176 7.72656 81.2832 7.40234 81.4707 7.13672C81.6621 6.86719 81.7949 6.62695 81.8691 6.41602C81.9473 6.20117 81.9863 5.98242 81.9863 5.75977C81.9863 5.47852 81.9277 5.22461 81.8105 4.99805C81.6973 4.76758 81.5293 4.58398 81.3066 4.44727C81.084 4.31055 80.8145 4.24219 80.498 4.24219C80.1191 4.24219 79.8027 4.31641 79.5488 4.46484C79.2988 4.60938 79.1113 4.8125 78.9863 5.07422C78.8613 5.33594 78.7988 5.63672 78.7988 5.97656H77.7148C77.7148 5.49609 77.8203 5.05664 78.0312 4.6582C78.2422 4.25977 78.5547 3.94336 78.9688 3.70898C79.3828 3.4707 79.8926 3.35156 80.498 3.35156C81.0371 3.35156 81.498 3.44727 81.8809 3.63867C82.2637 3.82617 82.5566 4.0918 82.7598 4.43555C82.9668 4.77539 83.0703 5.17383 83.0703 5.63086C83.0703 5.88086 83.0273 6.13477 82.9414 6.39258C82.8594 6.64648 82.7441 6.90039 82.5957 7.1543C82.4512 7.4082 82.2812 7.6582 82.0859 7.9043C81.8945 8.15039 81.6895 8.39258 81.4707 8.63086L79.1855 11.1094H83.4629Z" fill="#333333"/>
<path d="M12.6667 2.66797H3.33333C2.59695 2.66797 2 3.26492 2 4.0013V13.3346C2 14.071 2.59695 14.668 3.33333 14.668H12.6667C13.403 14.668 14 14.071 14 13.3346V4.0013C14 3.26492 13.403 2.66797 12.6667 2.66797Z" stroke="#333333" stroke-width="1.5" stroke-linecap="round" stroke-linejoin="round"/>
<path d="M10.666 1.33203V3.9987" stroke="#333333" stroke-width="1.5" stroke-linecap="round" stroke-linejoin="round"/>
<path d="M5.33398 1.33203V3.9987" stroke="#333333" stroke-width="1.5" stroke-linecap="round" stroke-linejoin="round"/>
<path d="M2 6.66797H14" stroke="#333333" stroke-width="1.5" stroke-linecap="round" stroke-linejoin="round"/>
</g>
<g opacity="0.5">
<path d="M200.299 11.1094V12H194.715V11.2207L197.51 8.10938C197.854 7.72656 198.119 7.40234 198.307 7.13672C198.498 6.86719 198.631 6.62695 198.705 6.41602C198.783 6.20117 198.822 5.98242 198.822 5.75977C198.822 5.47852 198.764 5.22461 198.646 4.99805C198.533 4.76758 198.365 4.58398 198.143 4.44727C197.92 4.31055 197.65 4.24219 197.334 4.24219C196.955 4.24219 196.639 4.31641 196.385 4.46484C196.135 4.60938 195.947 4.8125 195.822 5.07422C195.697 5.33594 195.635 5.63672 195.635 5.97656H194.551C194.551 5.49609 194.656 5.05664 194.867 4.6582C195.078 4.25977 195.391 3.94336 195.805 3.70898C196.219 3.4707 196.729 3.35156 197.334 3.35156C197.873 3.35156 198.334 3.44727 198.717 3.63867C199.1 3.82617 199.393 4.0918 199.596 4.43555C199.803 4.77539 199.906 5.17383 199.906 5.63086C199.906 5.88086 199.863 6.13477 199.777 6.39258C199.695 6.64648 199.58 6.90039 199.432 7.1543C199.287 7.4082 199.117 7.6582 198.922 7.9043C198.73 8.15039 198.525 8.39258 198.307 8.63086L196.021 11.1094H200.299ZM207.049 11.1094V12H201.465V11.2207L204.26 8.10938C204.604 7.72656 204.869 7.40234 205.057 7.13672C205.248 6.86719 205.381 6.62695 205.455 6.41602C205.533 6.20117 205.572 5.98242 205.572 5.75977C205.572 5.47852 205.514 5.22461 205.396 4.99805C205.283 4.76758 205.115 4.58398 204.893 4.44727C204.67 4.31055 204.4 4.24219 204.084 4.24219C203.705 4.24219 203.389 4.31641 203.135 4.46484C202.885 4.60938 202.697 4.8125 202.572 5.07422C202.447 5.33594 202.385 5.63672 202.385 5.97656H201.301C201.301 5.49609 201.406 5.05664 201.617 4.6582C201.828 4.25977 202.141 3.94336 202.555 3.70898C202.969 3.4707 203.479 3.35156 204.084 3.35156C204.623 3.35156 205.084 3.44727 205.467 3.63867C205.85 3.82617 206.143 4.0918 206.346 4.43555C206.553 4.77539 206.656 5.17383 206.656 5.63086C206.656 5.88086 206.613 6.13477 206.527 6.39258C206.445 6.64648 206.33 6.90039 206.182 7.1543C206.037 7.4082 205.867 7.6582 205.672 7.9043C205.48 8.15039 205.275 8.39258 205.057 8.63086L202.771 11.1094H207.049ZM213.799 11.1094V12H208.215V11.2207L211.01 8.10938C211.354 7.72656 211.619 7.40234 211.807 7.13672C211.998 6.86719 212.131 6.62695 212.205 6.41602C212.283 6.20117 212.322 5.98242 212.322 5.75977C212.322 5.47852 212.264 5.22461 212.146 4.99805C212.033 4.76758 211.865 4.58398 211.643 4.44727C211.42 4.31055 211.15 4.24219 210.834 4.24219C210.455 4.24219 210.139 4.31641 209.885 4.46484C209.635 4.60938 209.447 4.8125 209.322 5.07422C209.197 5.33594 209.135 5.63672 209.135 5.97656H208.051C208.051 5.49609 208.156 5.05664 208.367 4.6582C208.578 4.25977 208.891 3.94336 209.305 3.70898C209.719 3.4707 210.229 3.35156 210.834 3.35156C211.373 3.35156 211.834 3.44727 212.217 3.63867C212.6 3.82617 212.893 4.0918 213.096 4.43555C213.303 4.77539 213.406 5.17383 213.406 5.63086C213.406 5.88086 213.363 6.13477 213.277 6.39258C213.195 6.64648 213.08 6.90039 212.932 7.1543C212.787 7.4082 212.617 7.6582 212.422 7.9043C212.23 8.15039 212.025 8.39258 211.807 8.63086L209.521 11.1094H213.799Z" fill="#333333"/>
<g clip-path="url(#clip1_1_451)">
<path d="M174.666 8.0013C174.666 8.0013 177.333 2.66797 181.999 2.66797C186.666 2.66797 189.333 8.0013 189.333 8.0013C189.333 8.0013 186.666 13.3346 181.999 13.3346C177.333 13.3346 174.666 8.0013 174.666 8.0013Z" stroke="#333333" stroke-width="1.5" stroke-linecap="round" stroke-linejoin="round"/>
<path d="M182 10C183.105 10 184 9.10457 184 8C184 6.89543 183.105 6 182 6C180.895 6 180 6.89543 180 8C180 9.10457 180.895 10 182 10Z" stroke="#333333" stroke-width="1.5" stroke-linecap="round" stroke-linejoin="round"/>
</g>
</g>
<defs>
<clipPath id="clip0_1_451">
<rect width="16" height="16" fill="white" transform="translate(104)"/>
</clipPath>
<clipPath id="clip1_1_451">
<rect width="16" height="16" fill="white" transform="translate(174)"/>
</clipPath>
</defs>
</svg>
